<svg width="132" height="133" viewBox="0 0 132 133" fill="none" xmlns="http://www.w3.org/2000/svg">
<circle cx="66" cy="66.272" r="66" fill="#1D2E88"/>
<path d="M22.5082 74.272H17.5792V59.7265H22.6076C24.0517 59.7265 25.2923 60.0177 26.3292 60.6001C27.3709 61.1777 28.171 62.0087 28.7298 63.093C29.2885 64.1773 29.5678 65.4746 29.5678 66.985C29.5678 68.5002 29.2861 69.8023 28.7227 70.8913C28.1639 71.9803 27.3567 72.816 26.3008 73.3984C25.2496 73.9808 23.9854 74.272 22.5082 74.272ZM20.2141 71.9921H22.3803C23.3936 71.9921 24.2388 71.8075 24.9158 71.4382C25.5929 71.0641 26.1019 70.5078 26.4428 69.7691C26.7837 69.0258 26.9542 68.0977 26.9542 66.985C26.9542 65.8724 26.7837 64.9491 26.4428 64.2152C26.1019 63.4765 25.5977 62.9249 24.93 62.5603C24.2672 62.191 23.4433 62.0063 22.4585 62.0063H20.2141V71.9921ZM36.7873 74.485C35.6935 74.485 34.7489 74.2578 33.9535 73.8032C33.1628 73.3439 32.5543 72.6953 32.1282 71.8572C31.7021 71.0144 31.489 70.0224 31.489 68.8813C31.489 67.7592 31.7021 66.7743 32.1282 65.9268C32.5591 65.0745 33.1604 64.4117 33.9322 63.9382C34.704 63.4599 35.6107 63.2208 36.6523 63.2208C37.3247 63.2208 37.9592 63.3297 38.5558 63.5475C39.1571 63.7606 39.6874 64.092 40.1467 64.5419C40.6107 64.9917 40.9753 65.5646 41.2404 66.2606C41.5056 66.9519 41.6381 67.7758 41.6381 68.7322V69.5206H32.6964V67.7876H39.1737C39.1689 67.2952 39.0624 66.8572 38.854 66.4737C38.6457 66.0854 38.3545 65.78 37.9805 65.5575C37.6112 65.3349 37.1803 65.2237 36.6879 65.2237C36.1623 65.2237 35.7006 65.3515 35.3029 65.6072C34.9052 65.8581 34.5951 66.1896 34.3725 66.6015C34.1547 67.0087 34.0434 67.4562 34.0387 67.9438V69.4566C34.0387 70.0911 34.1547 70.6356 34.3867 71.0902C34.6187 71.54 34.9431 71.8856 35.3597 72.1271C35.7764 72.3638 36.2641 72.4822 36.8228 72.4822C37.1969 72.4822 37.5354 72.4301 37.8384 72.3259C38.1415 72.217 38.4042 72.0584 38.6268 71.8501C38.8493 71.6418 39.0174 71.3837 39.131 71.0759L41.5316 71.3458C41.3801 71.9803 41.0913 72.5343 40.6651 73.0078C40.2437 73.4765 39.704 73.8411 39.0458 74.1015C38.3877 74.3572 37.6348 74.485 36.7873 74.485ZM53.245 63.3629L49.3601 74.272H46.5192L42.6342 63.3629H45.3757L47.8828 71.4666H47.9964L50.5107 63.3629H53.245ZM59.4826 74.485C58.3888 74.485 57.4442 74.2578 56.6488 73.8032C55.8581 73.3439 55.2496 72.6953 54.8235 71.8572C54.3974 71.0144 54.1843 70.0224 54.1843 68.8813C54.1843 67.7592 54.3974 66.7743 54.8235 65.9268C55.2544 65.0745 55.8557 64.4117 56.6275 63.9382C57.3993 63.4599 58.306 63.2208 59.3477 63.2208C60.02 63.2208 60.6545 63.3297 61.2511 63.5475C61.8524 63.7606 62.3827 64.092 62.842 64.5419C63.306 64.9917 63.6706 65.5646 63.9357 66.2606C64.2009 66.9519 64.3335 67.7758 64.3335 68.7322V69.5206H55.3917V67.7876H61.869C61.8642 67.2952 61.7577 66.8572 61.5494 66.4737C61.341 66.0854 61.0498 65.78 60.6758 65.5575C60.3065 65.3349 59.8756 65.2237 59.3832 65.2237C58.8576 65.2237 58.396 65.3515 57.9982 65.6072C57.6005 65.8581 57.2904 66.1896 57.0678 66.6015C56.85 67.0087 56.7388 67.4562 56.734 67.9438V69.4566C56.734 70.0911 56.85 70.6356 57.082 71.0902C57.314 71.54 57.6384 71.8856 58.055 72.1271C58.4717 72.3638 58.9594 72.4822 59.5181 72.4822C59.8922 72.4822 60.2307 72.4301 60.5337 72.3259C60.8368 72.217 61.0996 72.0584 61.3221 71.8501C61.5446 71.6418 61.7127 71.3837 61.8263 71.0759L64.2269 71.3458C64.0754 71.9803 63.7866 72.5343 63.3604 73.0078C62.939 73.4765 62.3993 73.8411 61.7411 74.1015C61.083 74.3572 60.3301 74.485 59.4826 74.485ZM69.0795 59.7265V74.272H66.5085V59.7265H69.0795ZM76.4819 74.485C75.4165 74.485 74.4933 74.2507 73.712 73.7819C72.9308 73.3132 72.3247 72.6574 71.8938 71.8146C71.4677 70.9718 71.2546 69.9869 71.2546 68.86C71.2546 67.7331 71.4677 66.7459 71.8938 65.8984C72.3247 65.0509 72.9308 64.3927 73.712 63.924C74.4933 63.4552 75.4165 63.2208 76.4819 63.2208C77.5472 63.2208 78.4705 63.4552 79.2518 63.924C80.033 64.3927 80.6367 65.0509 81.0629 65.8984C81.4937 66.7459 81.7092 67.7331 81.7092 68.86C81.7092 69.9869 81.4937 70.9718 81.0629 71.8146C80.6367 72.6574 80.033 73.3132 79.2518 73.7819C78.4705 74.2507 77.5472 74.485 76.4819 74.485ZM76.4961 72.4254C77.0737 72.4254 77.5567 72.2668 77.945 71.9495C78.3332 71.6276 78.622 71.1967 78.8114 70.6569C79.0056 70.1171 79.1026 69.5158 79.1026 68.8529C79.1026 68.1853 79.0056 67.5816 78.8114 67.0419C78.622 66.4974 78.3332 66.0641 77.945 65.7421C77.5567 65.4202 77.0737 65.2592 76.4961 65.2592C75.9042 65.2592 75.4118 65.4202 75.0188 65.7421C74.6306 66.0641 74.3394 66.4974 74.1452 67.0419C73.9558 67.5816 73.8612 68.1853 73.8612 68.8529C73.8612 69.5158 73.9558 70.1171 74.1452 70.6569C74.3394 71.1967 74.6306 71.6276 75.0188 71.9495C75.4118 72.2668 75.9042 72.4254 76.4961 72.4254ZM83.8913 78.3629V63.3629H86.4197V65.1669H86.5689C86.7015 64.9017 86.8885 64.62 87.13 64.3217C87.3714 64.0187 87.6982 63.7606 88.1101 63.5475C88.522 63.3297 89.0476 63.2208 89.6868 63.2208C90.5296 63.2208 91.2895 63.4363 91.9666 63.8671C92.6484 64.2933 93.1882 64.9254 93.5859 65.7634C93.9884 66.5968 94.1896 67.6195 94.1896 68.8316C94.1896 70.0295 93.9931 71.0475 93.6001 71.8856C93.2071 72.7237 92.6721 73.3629 91.995 73.8032C91.3179 74.2436 90.5509 74.4637 89.6939 74.4637C89.0689 74.4637 88.5504 74.3596 88.1385 74.1512C87.7266 73.9429 87.3951 73.692 87.1442 73.3984C86.898 73.1001 86.7062 72.8184 86.5689 72.5532H86.4624V78.3629H83.8913ZM86.4126 68.8174C86.4126 69.5229 86.5121 70.1408 86.7109 70.6711C86.9145 71.2014 87.2057 71.6157 87.5845 71.914C87.968 72.2076 88.4321 72.3544 88.9766 72.3544C89.5447 72.3544 90.0206 72.2028 90.4041 71.8998C90.7876 71.592 91.0765 71.173 91.2706 70.6427C91.4695 70.1077 91.5689 69.4992 91.5689 68.8174C91.5689 68.1403 91.4718 67.539 91.2777 67.0134C91.0836 66.4879 90.7947 66.0759 90.4112 65.7777C90.0277 65.4794 89.5495 65.3302 88.9766 65.3302C88.4273 65.3302 87.9609 65.4746 87.5774 65.7634C87.1939 66.0523 86.9027 66.4571 86.7038 66.9779C86.5097 67.4988 86.4126 68.1119 86.4126 68.8174ZM101.221 74.485C100.127 74.485 99.1825 74.2578 98.3871 73.8032C97.5964 73.3439 96.9879 72.6953 96.5618 71.8572C96.1357 71.0144 95.9226 70.0224 95.9226 68.8813C95.9226 67.7592 96.1357 66.7743 96.5618 65.9268C96.9927 65.0745 97.594 64.4117 98.3658 63.9382C99.1375 63.4599 100.044 63.2208 101.086 63.2208C101.758 63.2208 102.393 63.3297 102.989 63.5475C103.591 63.7606 104.121 64.092 104.58 64.5419C105.044 64.9917 105.409 65.5646 105.674 66.2606C105.939 66.9519 106.072 67.7758 106.072 68.7322V69.5206H97.13V67.7876H103.607C103.603 67.2952 103.496 66.8572 103.288 66.4737C103.079 66.0854 102.788 65.78 102.414 65.5575C102.045 65.3349 101.614 65.2237 101.121 65.2237C100.596 65.2237 100.134 65.3515 99.7365 65.6072C99.3388 65.8581 99.0286 66.1896 98.8061 66.6015C98.5883 67.0087 98.477 67.4562 98.4723 67.9438V69.4566C98.4723 70.0911 98.5883 70.6356 98.8203 71.0902C99.0523 71.54 99.3767 71.8856 99.7933 72.1271C100.21 72.3638 100.698 72.4822 101.256 72.4822C101.63 72.4822 101.969 72.4301 102.272 72.3259C102.575 72.217 102.838 72.0584 103.06 71.8501C103.283 71.6418 103.451 71.3837 103.565 71.0759L105.965 71.3458C105.814 71.9803 105.525 72.5343 105.099 73.0078C104.677 73.4765 104.138 73.8411 103.479 74.1015C102.821 74.3572 102.068 74.485 101.221 74.485ZM108.247 74.272V63.3629H110.74V65.1811H110.853C111.052 64.5513 111.393 64.066 111.876 63.7251C112.364 63.3795 112.92 63.2066 113.545 63.2066C113.687 63.2066 113.846 63.2137 114.021 63.2279C114.201 63.2374 114.35 63.254 114.468 63.2777V65.6427C114.359 65.6048 114.187 65.5717 113.95 65.5433C113.718 65.5101 113.493 65.4936 113.275 65.4936C112.806 65.4936 112.385 65.5954 112.011 65.799C111.642 65.9978 111.35 66.2748 111.137 66.6299C110.924 66.985 110.818 67.3946 110.818 67.8586V74.272H108.247Z" fill="white"/>
</svg>
