<svg width="125" height="126" viewBox="0 0 125 126" fill="none" xmlns="http://www.w3.org/2000/svg">
<circle cx="62.5" cy="62.772" r="62.5" fill="#F9C51C"/>
<path d="M31.525 89.1309V78.8586H38.1056V80.4185H33.3858V83.2073H37.6542V84.7672H33.3858V89.1309H31.525ZM42.5157 89.2813C41.7633 89.2813 41.1113 89.1158 40.5596 88.7848C40.0078 88.4537 39.5798 87.9906 39.2755 87.3954C38.9746 86.8002 38.8241 86.1047 38.8241 85.3089C38.8241 84.513 38.9746 83.8159 39.2755 83.2173C39.5798 82.6188 40.0078 82.154 40.5596 81.8229C41.1113 81.4919 41.7633 81.3264 42.5157 81.3264C43.2681 81.3264 43.9201 81.4919 44.4718 81.8229C45.0236 82.154 45.4499 82.6188 45.7508 83.2173C46.0551 83.8159 46.2073 84.513 46.2073 85.3089C46.2073 86.1047 46.0551 86.8002 45.7508 87.3954C45.4499 87.9906 45.0236 88.4537 44.4718 88.7848C43.9201 89.1158 43.2681 89.2813 42.5157 89.2813ZM42.5257 87.8268C42.9337 87.8268 43.2747 87.7148 43.5489 87.4907C43.8231 87.2633 44.0271 86.959 44.1609 86.5779C44.2979 86.1967 44.3665 85.772 44.3665 85.3039C44.3665 84.8324 44.2979 84.406 44.1609 84.0248C44.0271 83.6403 43.8231 83.3343 43.5489 83.107C43.2747 82.8796 42.9337 82.7659 42.5257 82.7659C42.1077 82.7659 41.76 82.8796 41.4825 83.107C41.2083 83.3343 41.0026 83.6403 40.8655 84.0248C40.7318 84.406 40.6649 84.8324 40.6649 85.3039C40.6649 85.772 40.7318 86.1967 40.8655 86.5779C41.0026 86.959 41.2083 87.2633 41.4825 87.4907C41.76 87.7148 42.1077 87.8268 42.5257 87.8268ZM52.6588 85.8907V81.4267H54.4744V89.1309H52.7139V87.7616H52.6337C52.4598 88.1929 52.1739 88.5457 51.776 88.8199C51.3814 89.0941 50.8949 89.2312 50.3164 89.2312C49.8115 89.2312 49.3651 89.1192 48.9772 88.8951C48.5927 88.6677 48.2917 88.3384 48.0744 87.907C47.857 87.4723 47.7484 86.9473 47.7484 86.3321V81.4267H49.564V86.0512C49.564 86.5394 49.6978 86.9273 49.9653 87.2149C50.2328 87.5024 50.5839 87.6462 51.0186 87.6462C51.2861 87.6462 51.5453 87.581 51.796 87.4506C52.0468 87.3202 52.2525 87.1262 52.413 86.8688C52.5768 86.6079 52.6588 86.2819 52.6588 85.8907ZM58.1572 84.6167V89.1309H56.3416V81.4267H58.077V82.7358H58.1673C58.3445 82.3045 58.6271 81.9617 59.0149 81.7076C59.4062 81.4534 59.8893 81.3264 60.4645 81.3264C60.9961 81.3264 61.4593 81.4401 61.8538 81.6675C62.2518 81.8948 62.5594 82.2242 62.7767 82.6556C62.9974 83.0869 63.1061 83.6102 63.1028 84.2255V89.1309H61.2871V84.5064C61.2871 83.9914 61.1533 83.5885 60.8858 83.2976C60.6216 83.0067 60.2555 82.8612 59.7874 82.8612C59.4697 82.8612 59.1871 82.9314 58.9397 83.0719C58.6956 83.209 58.5033 83.4079 58.3629 83.6687C58.2258 83.9295 58.1572 84.2455 58.1572 84.6167ZM67.8075 89.2663C67.2023 89.2663 66.6606 89.1108 66.1824 88.7998C65.7042 88.4888 65.3264 88.0374 65.0489 87.4456C64.7713 86.8537 64.6325 86.1348 64.6325 85.2888C64.6325 84.4328 64.773 83.7105 65.0539 83.122C65.3381 82.5302 65.721 82.0838 66.2025 81.7828C66.684 81.4785 67.2207 81.3264 67.8125 81.3264C68.2639 81.3264 68.6351 81.4033 68.926 81.5571C69.2169 81.7076 69.4476 81.8898 69.6182 82.1038C69.7887 82.3145 69.9208 82.5134 70.0144 82.7007H70.0897V78.8586H71.9104V89.1309H70.1248V87.9171H70.0144C69.9208 88.1043 69.7854 88.3033 69.6082 88.5139C69.4309 88.7212 69.1969 88.8985 68.9059 89.0456C68.615 89.1927 68.2489 89.2663 67.8075 89.2663ZM68.3141 87.7766C68.6986 87.7766 69.0263 87.673 69.2972 87.4656C69.568 87.255 69.7737 86.9624 69.9141 86.5879C70.0546 86.2134 70.1248 85.777 70.1248 85.2788C70.1248 84.7806 70.0546 84.3475 69.9141 83.9797C69.777 83.6119 69.573 83.326 69.3022 83.122C69.0347 82.918 68.7053 82.8161 68.3141 82.8161C67.9095 82.8161 67.5718 82.9214 67.3009 83.132C67.0301 83.3427 66.8261 83.6336 66.689 84.0048C66.5519 84.3759 66.4834 84.8006 66.4834 85.2788C66.4834 85.7603 66.5519 86.19 66.689 86.5678C66.8294 86.9423 67.0351 87.2383 67.3059 87.4556C67.5801 87.6696 67.9162 87.7766 68.3141 87.7766ZM77.2559 89.2813C76.4835 89.2813 75.8164 89.1208 75.2546 88.7998C74.6962 88.4755 74.2665 88.0174 73.9656 87.4255C73.6646 86.8303 73.5142 86.1298 73.5142 85.3239C73.5142 84.5314 73.6646 83.8359 73.9656 83.2374C74.2699 82.6355 74.6945 82.1674 75.2396 81.833C75.7846 81.4952 76.4249 81.3264 77.1606 81.3264C77.6354 81.3264 78.0835 81.4033 78.5048 81.5571C78.9295 81.7076 79.304 81.9416 79.6283 82.2593C79.956 82.577 80.2135 82.9816 80.4007 83.4731C80.588 83.9613 80.6816 84.5431 80.6816 85.2186V85.7753H74.3668V84.5515H78.9412C78.9378 84.2037 78.8626 83.8944 78.7155 83.6236C78.5683 83.3494 78.3627 83.1337 78.0985 82.9766C77.8377 82.8194 77.5334 82.7408 77.1857 82.7408C76.8145 82.7408 76.4885 82.8311 76.2076 83.0117C75.9267 83.1889 75.7077 83.423 75.5505 83.7139C75.3967 84.0014 75.3181 84.3174 75.3148 84.6618V85.7302C75.3148 86.1783 75.3967 86.5628 75.5606 86.8838C75.7244 87.2015 75.9535 87.4456 76.2477 87.6161C76.542 87.7833 76.8864 87.8669 77.281 87.8669C77.5451 87.8669 77.7842 87.8301 77.9982 87.7565C78.2122 87.6796 78.3978 87.5676 78.555 87.4205C78.7121 87.2734 78.8308 87.0911 78.9111 86.8738L80.6064 87.0644C80.4994 87.5125 80.2954 87.9037 79.9945 88.2381C79.6969 88.5691 79.3157 88.8266 78.8509 89.0105C78.3861 89.191 77.8544 89.2813 77.2559 89.2813ZM82.2177 89.1309V81.4267H83.9782V82.7107H84.0585C84.1989 82.266 84.4397 81.9233 84.7807 81.6825C85.1251 81.4384 85.518 81.3164 85.9594 81.3164C86.0597 81.3164 86.1718 81.3214 86.2955 81.3314C86.4225 81.3381 86.5279 81.3498 86.6115 81.3665V83.0367C86.5346 83.01 86.4125 82.9866 86.2453 82.9665C86.0815 82.9431 85.9226 82.9314 85.7688 82.9314C85.4378 82.9314 85.1402 83.0033 84.876 83.1471C84.6152 83.2875 84.4096 83.4831 84.2591 83.7339C84.1086 83.9847 84.0334 84.274 84.0334 84.6017V89.1309H82.2177ZM93.9069 83.4631L92.2517 83.6437C92.2048 83.4765 92.1229 83.3193 92.0059 83.1722C91.8922 83.025 91.7384 82.9063 91.5444 82.8161C91.3505 82.7258 91.1131 82.6806 90.8322 82.6806C90.4544 82.6806 90.1367 82.7626 89.8792 82.9264C89.6251 83.0902 89.4997 83.3026 89.503 83.5634C89.4997 83.7874 89.5816 83.9697 89.7488 84.1101C89.9193 84.2506 90.2002 84.3659 90.5915 84.4562L91.9056 84.7371C92.6345 84.8942 93.1762 85.1434 93.5307 85.4844C93.8885 85.8255 94.069 86.2719 94.0724 86.8236C94.069 87.3085 93.9269 87.7365 93.646 88.1077C93.3685 88.4755 92.9823 88.763 92.4874 88.9704C91.9925 89.1777 91.4241 89.2813 90.7821 89.2813C89.8391 89.2813 89.08 89.084 88.5049 88.6895C87.9298 88.2916 87.587 87.7382 87.4767 87.0293L89.2472 86.8587C89.3275 87.2065 89.498 87.469 89.7588 87.6462C90.0197 87.8234 90.3591 87.912 90.777 87.912C91.2084 87.912 91.5545 87.8234 91.8153 87.6462C92.0795 87.469 92.2115 87.25 92.2115 86.9891C92.2115 86.7685 92.1263 86.5862 91.9557 86.4424C91.7885 86.2986 91.5277 86.1883 91.1733 86.1114L89.8592 85.8355C89.1202 85.6817 88.5735 85.4226 88.219 85.0581C87.8646 84.6903 87.689 84.2255 87.6924 83.6637C87.689 83.1889 87.8178 82.7776 88.0786 82.4298C88.3427 82.0787 88.7089 81.8079 89.177 81.6173C89.6485 81.4234 90.1919 81.3264 90.8071 81.3264C91.71 81.3264 92.4205 81.5187 92.9388 81.9032C93.4605 82.2877 93.7831 82.8077 93.9069 83.4631Z" fill="black"/>
<path d="M51.7265 67.9385V63.9058L62.4251 53.4179C63.4483 52.3847 64.301 51.4668 64.9831 50.6643C65.6652 49.8618 66.1768 49.0844 66.5179 48.332C66.859 47.5796 67.0295 46.7771 67.0295 45.9244C67.0295 44.9514 66.8088 44.1188 66.3674 43.4266C65.9261 42.7244 65.3192 42.1827 64.5467 41.8015C63.7743 41.4203 62.8966 41.2297 61.9135 41.2297C60.9003 41.2297 60.0125 41.4404 59.2501 41.8617C58.4877 42.273 57.8959 42.8598 57.4746 43.6222C57.0633 44.3846 56.8576 45.2925 56.8576 46.3458H51.546C51.546 44.3896 51.9924 42.6893 52.8852 41.2448C53.778 39.8002 55.0068 38.6817 56.5717 37.8892C58.1467 37.0968 59.9523 36.7005 61.9887 36.7005C64.0552 36.7005 65.8709 37.0867 67.4358 37.8591C69.0007 38.6316 70.2145 39.6899 71.0772 41.0341C71.9499 42.3783 72.3863 43.9131 72.3863 45.6385C72.3863 46.7922 72.1656 47.9257 71.7242 49.0392C71.2829 50.1527 70.5054 51.3866 69.3919 52.7408C68.2885 54.0951 66.7386 55.7352 64.7423 57.6612L59.4307 63.0632V63.2738H72.8528V67.9385H51.7265Z" fill="black"/>
</svg>
